<svg xmlns="http://www.w3.org/2000/svg" viewBox="0 0 1260 960" width="1260" height="960" role="img" aria-label="Meiosis en una célula animal con 2n = 4" font-family="system-ui, -apple-system, 'Segoe UI', Roboto, Helvetica, Arial, sans-serif">
<title>Meiosis en una célula animal con 2n = 4</title>
<defs><marker id="ar" viewBox="0 0 10 10" refX="8" refY="5" markerWidth="7" markerHeight="7" orient="auto-start-reverse"><path d="M0,0 L10,5 L0,10 z" fill="#4a5568"/></marker>
<marker id="arg" viewBox="0 0 10 10" refX="8" refY="5" markerWidth="7" markerHeight="7" orient="auto-start-reverse"><path d="M0,0 L10,5 L0,10 z" fill="#2f855a"/></marker></defs>
<rect width="1260" height="960" fill="#ffffff"/>
<text x="630.0" y="30.0" font-size="20" text-anchor="middle" fill="#1a202c" font-weight="700" >Meiosis en una célula animal (2n = 4)</text><rect x="10" y="46" width="1240" height="28" rx="6" fill="#e6f4ec"/><text x="630.0" y="66.0" font-size="15.5" text-anchor="middle" fill="#2f855a" font-weight="700" >Meiosis I (reduccional): se separan los cromosomas homólogos · 2n → n</text><rect x="10" y="500" width="1240" height="28" rx="6" fill="#e6f4ec"/><text x="630.0" y="520.0" font-size="15.5" text-anchor="middle" fill="#2f855a" font-weight="700" >Meiosis II (ecuacional): se separan las cromátidas hermanas · n → n</text><text x="165.0" y="104.0" font-size="17" text-anchor="middle" fill="#1a202c" font-weight="700" >Profase I</text><text x="165.0" y="125.0" font-size="13.5" text-anchor="middle" fill="#4a5568" font-weight="normal" >Bivalentes y entrecruzamiento</text><text x="475.0" y="104.0" font-size="17" text-anchor="middle" fill="#1a202c" font-weight="700" >Metafase I</text><text x="475.0" y="125.0" font-size="13.5" text-anchor="middle" fill="#4a5568" font-weight="normal" >Pares de homólogos en el ecuador</text><line x1="320.0" y1="140.0" x2="320.0" y2="470.0" stroke="#e2e8f0" stroke-width="1.5" /><text x="785.0" y="104.0" font-size="17" text-anchor="middle" fill="#1a202c" font-weight="700" >Anafase I</text><text x="785.0" y="125.0" font-size="13.5" text-anchor="middle" fill="#4a5568" font-weight="normal" >Homólogos a polos opuestos</text><line x1="630.0" y1="140.0" x2="630.0" y2="470.0" stroke="#e2e8f0" stroke-width="1.5" /><text x="1095.0" y="104.0" font-size="17" text-anchor="middle" fill="#1a202c" font-weight="700" >Telofase I</text><text x="1095.0" y="125.0" font-size="13.5" text-anchor="middle" fill="#4a5568" font-weight="normal" >Dos células n (2 cromátidas)</text><line x1="940.0" y1="140.0" x2="940.0" y2="470.0" stroke="#e2e8f0" stroke-width="1.5" /><ellipse cx="165.0" cy="290" rx="130" ry="118" fill="#f4f9f6" stroke="#2f855a" stroke-width="2.5"/><ellipse cx="165.0" cy="290" rx="90" ry="82" fill="#fbfdfc" stroke="#4a5568" stroke-width="1.8" stroke-dasharray="7 6"/><line x1="119.0" y1="290.0" x2="119.0" y2="320.8" stroke="#2b6cb0" stroke-width="8" stroke-linecap="round"/><line x1="119.0" y1="290.0" x2="119.0" y2="259.2" stroke="#2b6cb0" stroke-width="8" stroke-linecap="round"/><line x1="129.0" y1="290.0" x2="129.0" y2="303.9" stroke="#2b6cb0" stroke-width="8" stroke-linecap="round"/><line x1="129.0" y1="303.9" x2="129.0" y2="320.8" stroke="#c53030" stroke-width="8" stroke-linecap="round"/><line x1="129.0" y1="290.0" x2="129.0" y2="259.2" stroke="#2b6cb0" stroke-width="8" stroke-linecap="round"/><circle cx="124.0" cy="290.0" r="5.0" fill="#1a202c"/><line x1="141.0" y1="290.0" x2="141.0" y2="303.9" stroke="#c53030" stroke-width="8" stroke-linecap="round"/><line x1="141.0" y1="303.9" x2="141.0" y2="320.8" stroke="#2b6cb0" stroke-width="8" stroke-linecap="round"/><line x1="141.0" y1="290.0" x2="141.0" y2="259.2" stroke="#c53030" stroke-width="8" stroke-linecap="round"/><line x1="151.0" y1="290.0" x2="151.0" y2="320.8" stroke="#c53030" stroke-width="8" stroke-linecap="round"/><line x1="151.0" y1="290.0" x2="151.0" y2="259.2" stroke="#c53030" stroke-width="8" stroke-linecap="round"/><circle cx="146.0" cy="290.0" r="5.0" fill="#1a202c"/><line x1="198.0" y1="286.0" x2="198.0" y2="304.2" stroke="#2b6cb0" stroke-width="8" stroke-linecap="round"/><line x1="198.0" y1="286.0" x2="198.0" y2="267.8" stroke="#2b6cb0" stroke-width="8" stroke-linecap="round"/><line x1="208.0" y1="286.0" x2="208.0" y2="304.2" stroke="#2b6cb0" stroke-width="8" stroke-linecap="round"/><line x1="208.0" y1="286.0" x2="208.0" y2="267.8" stroke="#2b6cb0" stroke-width="8" stroke-linecap="round"/><circle cx="203.0" cy="286.0" r="5.0" fill="#1a202c"/><line x1="220.0" y1="286.0" x2="220.0" y2="304.2" stroke="#c53030" stroke-width="8" stroke-linecap="round"/><line x1="220.0" y1="286.0" x2="220.0" y2="267.8" stroke="#c53030" stroke-width="8" stroke-linecap="round"/><line x1="230.0" y1="286.0" x2="230.0" y2="304.2" stroke="#c53030" stroke-width="8" stroke-linecap="round"/><line x1="230.0" y1="286.0" x2="230.0" y2="267.8" stroke="#c53030" stroke-width="8" stroke-linecap="round"/><circle cx="225.0" cy="286.0" r="5.0" fill="#1a202c"/><line x1="133.0" y1="316.0" x2="95.0" y2="418.0" stroke="#4a5568" stroke-width="1" /><text x="105.0" y="435.0" font-size="14" text-anchor="middle" fill="#1a202c" font-weight="700" >entrecruzamiento</text><line x1="215.0" y1="310.0" x2="241.0" y2="388.0" stroke="#4a5568" stroke-width="1" /><text x="245.0" y="406.0" font-size="14" text-anchor="middle" fill="#1a202c" font-weight="normal" >bivalente</text><rect x="98.0" y="191.5" width="14" height="5" rx="1.5" fill="#2f855a"/><rect x="102.5" y="187" width="5" height="14" rx="1.5" fill="#2f855a"/><rect x="218.0" y="191.5" width="14" height="5" rx="1.5" fill="#2f855a"/><rect x="222.5" y="187" width="5" height="14" rx="1.5" fill="#2f855a"/><ellipse cx="475.0" cy="290" rx="130" ry="118" fill="#f4f9f6" stroke="#2f855a" stroke-width="2.5"/><line x1="365.0" y1="290.0" x2="465.0" y2="250.0" stroke="#a0aec0" stroke-width="1.3" /><line x1="585.0" y1="290.0" x2="485.0" y2="250.0" stroke="#a0aec0" stroke-width="1.3" /><line x1="365.0" y1="290.0" x2="465.0" y2="345.0" stroke="#a0aec0" stroke-width="1.3" /><line x1="585.0" y1="290.0" x2="485.0" y2="345.0" stroke="#a0aec0" stroke-width="1.3" /><line x1="365.0" y1="290.0" x2="379.0" y2="290.0" stroke="#a0aec0" stroke-width="1.2" /><line x1="365.0" y1="290.0" x2="374.9" y2="299.9" stroke="#a0aec0" stroke-width="1.2" /><line x1="365.0" y1="290.0" x2="365.0" y2="304.0" stroke="#a0aec0" stroke-width="1.2" /><line x1="365.0" y1="290.0" x2="355.1" y2="299.9" stroke="#a0aec0" stroke-width="1.2" /><line x1="365.0" y1="290.0" x2="351.0" y2="290.0" stroke="#a0aec0" stroke-width="1.2" /><line x1="365.0" y1="290.0" x2="355.1" y2="280.1" stroke="#a0aec0" stroke-width="1.2" /><line x1="365.0" y1="290.0" x2="365.0" y2="276.0" stroke="#a0aec0" stroke-width="1.2" /><line x1="365.0" y1="290.0" x2="374.9" y2="280.1" stroke="#a0aec0" stroke-width="1.2" /><rect x="358.0" y="287.5" width="14" height="5" rx="1.5" fill="#2f855a"/><rect x="362.5" y="283" width="5" height="14" rx="1.5" fill="#2f855a"/><line x1="585.0" y1="290.0" x2="599.0" y2="290.0" stroke="#a0aec0" stroke-width="1.2" /><line x1="585.0" y1="290.0" x2="594.9" y2="299.9" stroke="#a0aec0" stroke-width="1.2" /><line x1="585.0" y1="290.0" x2="585.0" y2="304.0" stroke="#a0aec0" stroke-width="1.2" /><line x1="585.0" y1="290.0" x2="575.1" y2="299.9" stroke="#a0aec0" stroke-width="1.2" /><line x1="585.0" y1="290.0" x2="571.0" y2="290.0" stroke="#a0aec0" stroke-width="1.2" /><line x1="585.0" y1="290.0" x2="575.1" y2="280.1" stroke="#a0aec0" stroke-width="1.2" /><line x1="585.0" y1="290.0" x2="585.0" y2="276.0" stroke="#a0aec0" stroke-width="1.2" /><line x1="585.0" y1="290.0" x2="594.9" y2="280.1" stroke="#a0aec0" stroke-width="1.2" /><rect x="578.0" y="287.5" width="14" height="5" rx="1.5" fill="#2f855a"/><rect x="582.5" y="283" width="5" height="14" rx="1.5" fill="#2f855a"/><line x1="459.0" y1="250.0" x2="459.0" y2="280.8" stroke="#2b6cb0" stroke-width="8" stroke-linecap="round"/><line x1="459.0" y1="250.0" x2="459.0" y2="219.2" stroke="#2b6cb0" stroke-width="8" stroke-linecap="round"/><line x1="469.0" y1="250.0" x2="469.0" y2="263.9" stroke="#2b6cb0" stroke-width="8" stroke-linecap="round"/><line x1="469.0" y1="263.9" x2="469.0" y2="280.8" stroke="#c53030" stroke-width="8" stroke-linecap="round"/><line x1="469.0" y1="250.0" x2="469.0" y2="219.2" stroke="#2b6cb0" stroke-width="8" stroke-linecap="round"/><circle cx="464.0" cy="250.0" r="5.0" fill="#1a202c"/><line x1="481.0" y1="250.0" x2="481.0" y2="263.9" stroke="#c53030" stroke-width="8" stroke-linecap="round"/><line x1="481.0" y1="263.9" x2="481.0" y2="280.8" stroke="#2b6cb0" stroke-width="8" stroke-linecap="round"/><line x1="481.0" y1="250.0" x2="481.0" y2="219.2" stroke="#c53030" stroke-width="8" stroke-linecap="round"/><line x1="491.0" y1="250.0" x2="491.0" y2="280.8" stroke="#c53030" stroke-width="8" stroke-linecap="round"/><line x1="491.0" y1="250.0" x2="491.0" y2="219.2" stroke="#c53030" stroke-width="8" stroke-linecap="round"/><circle cx="486.0" cy="250.0" r="5.0" fill="#1a202c"/><line x1="459.0" y1="345.0" x2="459.0" y2="363.2" stroke="#2b6cb0" stroke-width="8" stroke-linecap="round"/><line x1="459.0" y1="345.0" x2="459.0" y2="326.8" stroke="#2b6cb0" stroke-width="8" stroke-linecap="round"/><line x1="469.0" y1="345.0" x2="469.0" y2="363.2" stroke="#2b6cb0" stroke-width="8" stroke-linecap="round"/><line x1="469.0" y1="345.0" x2="469.0" y2="326.8" stroke="#2b6cb0" stroke-width="8" stroke-linecap="round"/><circle cx="464.0" cy="345.0" r="5.0" fill="#1a202c"/><line x1="481.0" y1="345.0" x2="481.0" y2="363.2" stroke="#c53030" stroke-width="8" stroke-linecap="round"/><line x1="481.0" y1="345.0" x2="481.0" y2="326.8" stroke="#c53030" stroke-width="8" stroke-linecap="round"/><line x1="491.0" y1="345.0" x2="491.0" y2="363.2" stroke="#c53030" stroke-width="8" stroke-linecap="round"/><line x1="491.0" y1="345.0" x2="491.0" y2="326.8" stroke="#c53030" stroke-width="8" stroke-linecap="round"/><circle cx="486.0" cy="345.0" r="5.0" fill="#1a202c"/><line x1="475.0" y1="176.0" x2="475.0" y2="404.0" stroke="#2f855a" stroke-width="1.2" stroke-dasharray="3 5"/><ellipse cx="785.0" cy="290" rx="138" ry="112" fill="#f4f9f6" stroke="#2f855a" stroke-width="2.5"/><line x1="667.0" y1="290.0" x2="723.0" y2="252.0" stroke="#a0aec0" stroke-width="1.3" /><line x1="903.0" y1="290.0" x2="847.0" y2="252.0" stroke="#a0aec0" stroke-width="1.3" /><line x1="667.0" y1="290.0" x2="723.0" y2="342.0" stroke="#a0aec0" stroke-width="1.3" /><line x1="903.0" y1="290.0" x2="847.0" y2="342.0" stroke="#a0aec0" stroke-width="1.3" /><line x1="667.0" y1="290.0" x2="681.0" y2="290.0" stroke="#a0aec0" stroke-width="1.2" /><line x1="667.0" y1="290.0" x2="676.9" y2="299.9" stroke="#a0aec0" stroke-width="1.2" /><line x1="667.0" y1="290.0" x2="667.0" y2="304.0" stroke="#a0aec0" stroke-width="1.2" /><line x1="667.0" y1="290.0" x2="657.1" y2="299.9" stroke="#a0aec0" stroke-width="1.2" /><line x1="667.0" y1="290.0" x2="653.0" y2="290.0" stroke="#a0aec0" stroke-width="1.2" /><line x1="667.0" y1="290.0" x2="657.1" y2="280.1" stroke="#a0aec0" stroke-width="1.2" /><line x1="667.0" y1="290.0" x2="667.0" y2="276.0" stroke="#a0aec0" stroke-width="1.2" /><line x1="667.0" y1="290.0" x2="676.9" y2="280.1" stroke="#a0aec0" stroke-width="1.2" /><rect x="660.0" y="287.5" width="14" height="5" rx="1.5" fill="#2f855a"/><rect x="664.5" y="283" width="5" height="14" rx="1.5" fill="#2f855a"/><line x1="903.0" y1="290.0" x2="917.0" y2="290.0" stroke="#a0aec0" stroke-width="1.2" /><line x1="903.0" y1="290.0" x2="912.9" y2="299.9" stroke="#a0aec0" stroke-width="1.2" /><line x1="903.0" y1="290.0" x2="903.0" y2="304.0" stroke="#a0aec0" stroke-width="1.2" /><line x1="903.0" y1="290.0" x2="893.1" y2="299.9" stroke="#a0aec0" stroke-width="1.2" /><line x1="903.0" y1="290.0" x2="889.0" y2="290.0" stroke="#a0aec0" stroke-width="1.2" /><line x1="903.0" y1="290.0" x2="893.1" y2="280.1" stroke="#a0aec0" stroke-width="1.2" /><line x1="903.0" y1="290.0" x2="903.0" y2="276.0" stroke="#a0aec0" stroke-width="1.2" /><line x1="903.0" y1="290.0" x2="912.9" y2="280.1" stroke="#a0aec0" stroke-width="1.2" /><rect x="896.0" y="287.5" width="14" height="5" rx="1.5" fill="#2f855a"/><rect x="900.5" y="283" width="5" height="14" rx="1.5" fill="#2f855a"/><line x1="718.0" y1="252.0" x2="718.0" y2="282.8" stroke="#2b6cb0" stroke-width="8" stroke-linecap="round"/><line x1="718.0" y1="252.0" x2="718.0" y2="221.2" stroke="#2b6cb0" stroke-width="8" stroke-linecap="round"/><line x1="728.0" y1="252.0" x2="728.0" y2="265.9" stroke="#2b6cb0" stroke-width="8" stroke-linecap="round"/><line x1="728.0" y1="265.9" x2="728.0" y2="282.8" stroke="#c53030" stroke-width="8" stroke-linecap="round"/><line x1="728.0" y1="252.0" x2="728.0" y2="221.2" stroke="#2b6cb0" stroke-width="8" stroke-linecap="round"/><circle cx="723.0" cy="252.0" r="5.0" fill="#1a202c"/><line x1="842.0" y1="252.0" x2="842.0" y2="265.9" stroke="#c53030" stroke-width="8" stroke-linecap="round"/><line x1="842.0" y1="265.9" x2="842.0" y2="282.8" stroke="#2b6cb0" stroke-width="8" stroke-linecap="round"/><line x1="842.0" y1="252.0" x2="842.0" y2="221.2" stroke="#c53030" stroke-width="8" stroke-linecap="round"/><line x1="852.0" y1="252.0" x2="852.0" y2="282.8" stroke="#c53030" stroke-width="8" stroke-linecap="round"/><line x1="852.0" y1="252.0" x2="852.0" y2="221.2" stroke="#c53030" stroke-width="8" stroke-linecap="round"/><circle cx="847.0" cy="252.0" r="5.0" fill="#1a202c"/><line x1="718.0" y1="342.0" x2="718.0" y2="360.2" stroke="#2b6cb0" stroke-width="8" stroke-linecap="round"/><line x1="718.0" y1="342.0" x2="718.0" y2="323.8" stroke="#2b6cb0" stroke-width="8" stroke-linecap="round"/><line x1="728.0" y1="342.0" x2="728.0" y2="360.2" stroke="#2b6cb0" stroke-width="8" stroke-linecap="round"/><line x1="728.0" y1="342.0" x2="728.0" y2="323.8" stroke="#2b6cb0" stroke-width="8" stroke-linecap="round"/><circle cx="723.0" cy="342.0" r="5.0" fill="#1a202c"/><line x1="842.0" y1="342.0" x2="842.0" y2="360.2" stroke="#c53030" stroke-width="8" stroke-linecap="round"/><line x1="842.0" y1="342.0" x2="842.0" y2="323.8" stroke="#c53030" stroke-width="8" stroke-linecap="round"/><line x1="852.0" y1="342.0" x2="852.0" y2="360.2" stroke="#c53030" stroke-width="8" stroke-linecap="round"/><line x1="852.0" y1="342.0" x2="852.0" y2="323.8" stroke="#c53030" stroke-width="8" stroke-linecap="round"/><circle cx="847.0" cy="342.0" r="5.0" fill="#1a202c"/><line x1="765.0" y1="388.0" x2="729.0" y2="388.0" stroke="#2f855a" stroke-width="2" marker-end="url(#arg)"/><line x1="805.0" y1="388.0" x2="841.0" y2="388.0" stroke="#2f855a" stroke-width="2" marker-end="url(#arg)"/><path d="M1095.0,262 C1075.8,186 965.0,186 965.0,290 C965.0,394 1075.8,394 1095.0,318 C1114.2,394 1225.0,394 1225.0,290 C1225.0,186 1114.2,186 1095.0,262 Z" fill="#f4f9f6" stroke="#2f855a" stroke-width="2.5"/><ellipse cx="1029.0" cy="290" rx="46" ry="60" fill="#ffffff" stroke="#4a5568" stroke-width="1.8"/><line x1="1012.0" y1="286.0" x2="1012.0" y2="316.8" stroke="#2b6cb0" stroke-width="8" stroke-linecap="round"/><line x1="1012.0" y1="286.0" x2="1012.0" y2="255.2" stroke="#2b6cb0" stroke-width="8" stroke-linecap="round"/><line x1="1022.0" y1="286.0" x2="1022.0" y2="299.9" stroke="#2b6cb0" stroke-width="8" stroke-linecap="round"/><line x1="1022.0" y1="299.9" x2="1022.0" y2="316.8" stroke="#c53030" stroke-width="8" stroke-linecap="round"/><line x1="1022.0" y1="286.0" x2="1022.0" y2="255.2" stroke="#2b6cb0" stroke-width="8" stroke-linecap="round"/><circle cx="1017.0" cy="286.0" r="5.0" fill="#1a202c"/><line x1="1042.0" y1="286.0" x2="1042.0" y2="304.2" stroke="#2b6cb0" stroke-width="8" stroke-linecap="round"/><line x1="1042.0" y1="286.0" x2="1042.0" y2="267.8" stroke="#2b6cb0" stroke-width="8" stroke-linecap="round"/><line x1="1052.0" y1="286.0" x2="1052.0" y2="304.2" stroke="#2b6cb0" stroke-width="8" stroke-linecap="round"/><line x1="1052.0" y1="286.0" x2="1052.0" y2="267.8" stroke="#2b6cb0" stroke-width="8" stroke-linecap="round"/><circle cx="1047.0" cy="286.0" r="5.0" fill="#1a202c"/><text x="1029.0" y="418.0" font-size="15" text-anchor="middle" fill="#2f855a" font-weight="700" >n = 2</text><ellipse cx="1161.0" cy="290" rx="46" ry="60" fill="#ffffff" stroke="#4a5568" stroke-width="1.8"/><line x1="1144.0" y1="286.0" x2="1144.0" y2="299.9" stroke="#c53030" stroke-width="8" stroke-linecap="round"/><line x1="1144.0" y1="299.9" x2="1144.0" y2="316.8" stroke="#2b6cb0" stroke-width="8" stroke-linecap="round"/><line x1="1144.0" y1="286.0" x2="1144.0" y2="255.2" stroke="#c53030" stroke-width="8" stroke-linecap="round"/><line x1="1154.0" y1="286.0" x2="1154.0" y2="316.8" stroke="#c53030" stroke-width="8" stroke-linecap="round"/><line x1="1154.0" y1="286.0" x2="1154.0" y2="255.2" stroke="#c53030" stroke-width="8" stroke-linecap="round"/><circle cx="1149.0" cy="286.0" r="5.0" fill="#1a202c"/><line x1="1174.0" y1="286.0" x2="1174.0" y2="304.2" stroke="#c53030" stroke-width="8" stroke-linecap="round"/><line x1="1174.0" y1="286.0" x2="1174.0" y2="267.8" stroke="#c53030" stroke-width="8" stroke-linecap="round"/><line x1="1184.0" y1="286.0" x2="1184.0" y2="304.2" stroke="#c53030" stroke-width="8" stroke-linecap="round"/><line x1="1184.0" y1="286.0" x2="1184.0" y2="267.8" stroke="#c53030" stroke-width="8" stroke-linecap="round"/><circle cx="1179.0" cy="286.0" r="5.0" fill="#1a202c"/><text x="1161.0" y="418.0" font-size="15" text-anchor="middle" fill="#2f855a" font-weight="700" >n = 2</text><text x="165.0" y="560.0" font-size="17" text-anchor="middle" fill="#1a202c" font-weight="700" >Metafase II</text><text x="165.0" y="581.0" font-size="13.5" text-anchor="middle" fill="#4a5568" font-weight="normal" >Cromosomas en el ecuador</text><text x="475.0" y="560.0" font-size="17" text-anchor="middle" fill="#1a202c" font-weight="700" >Anafase II</text><text x="475.0" y="581.0" font-size="13.5" text-anchor="middle" fill="#4a5568" font-weight="normal" >Las cromátidas se separan</text><text x="940.0" y="560.0" font-size="17" text-anchor="middle" fill="#1a202c" font-weight="700" >Resultado: 4 células haploides</text><text x="940.0" y="581.0" font-size="13.5" text-anchor="middle" fill="#4a5568" font-weight="normal" >Todas distintas entre sí (n = 2)</text><line x1="320.0" y1="590.0" x2="320.0" y2="930.0" stroke="#e2e8f0" stroke-width="1.5" /><line x1="630.0" y1="590.0" x2="630.0" y2="930.0" stroke="#e2e8f0" stroke-width="1.5" /><ellipse cx="165" cy="680" rx="126" ry="72" fill="#f4f9f6" stroke="#2f855a" stroke-width="2.5"/><line x1="61.0" y1="680.0" x2="159.0" y2="658.0" stroke="#a0aec0" stroke-width="1.3" /><line x1="269.0" y1="680.0" x2="171.0" y2="658.0" stroke="#a0aec0" stroke-width="1.3" /><line x1="61.0" y1="680.0" x2="159.0" y2="714.0" stroke="#a0aec0" stroke-width="1.3" /><line x1="269.0" y1="680.0" x2="171.0" y2="714.0" stroke="#a0aec0" stroke-width="1.3" /><line x1="61.0" y1="680.0" x2="73.0" y2="680.0" stroke="#a0aec0" stroke-width="1.2" /><line x1="61.0" y1="680.0" x2="69.5" y2="688.5" stroke="#a0aec0" stroke-width="1.2" /><line x1="61.0" y1="680.0" x2="61.0" y2="692.0" stroke="#a0aec0" stroke-width="1.2" /><line x1="61.0" y1="680.0" x2="52.5" y2="688.5" stroke="#a0aec0" stroke-width="1.2" /><line x1="61.0" y1="680.0" x2="49.0" y2="680.0" stroke="#a0aec0" stroke-width="1.2" /><line x1="61.0" y1="680.0" x2="52.5" y2="671.5" stroke="#a0aec0" stroke-width="1.2" /><line x1="61.0" y1="680.0" x2="61.0" y2="668.0" stroke="#a0aec0" stroke-width="1.2" /><line x1="61.0" y1="680.0" x2="69.5" y2="671.5" stroke="#a0aec0" stroke-width="1.2" /><rect x="54" y="677.5" width="14" height="5" rx="1.5" fill="#2f855a"/><rect x="58.5" y="673" width="5" height="14" rx="1.5" fill="#2f855a"/><line x1="269.0" y1="680.0" x2="281.0" y2="680.0" stroke="#a0aec0" stroke-width="1.2" /><line x1="269.0" y1="680.0" x2="277.5" y2="688.5" stroke="#a0aec0" stroke-width="1.2" /><line x1="269.0" y1="680.0" x2="269.0" y2="692.0" stroke="#a0aec0" stroke-width="1.2" /><line x1="269.0" y1="680.0" x2="260.5" y2="688.5" stroke="#a0aec0" stroke-width="1.2" /><line x1="269.0" y1="680.0" x2="257.0" y2="680.0" stroke="#a0aec0" stroke-width="1.2" /><line x1="269.0" y1="680.0" x2="260.5" y2="671.5" stroke="#a0aec0" stroke-width="1.2" /><line x1="269.0" y1="680.0" x2="269.0" y2="668.0" stroke="#a0aec0" stroke-width="1.2" /><line x1="269.0" y1="680.0" x2="277.5" y2="671.5" stroke="#a0aec0" stroke-width="1.2" /><rect x="262" y="677.5" width="14" height="5" rx="1.5" fill="#2f855a"/><rect x="266.5" y="673" width="5" height="14" rx="1.5" fill="#2f855a"/><line x1="160.0" y1="658.0" x2="160.0" y2="680.0" stroke="#2b6cb0" stroke-width="8" stroke-linecap="round"/><line x1="160.0" y1="658.0" x2="160.0" y2="636.0" stroke="#2b6cb0" stroke-width="8" stroke-linecap="round"/><line x1="170.0" y1="658.0" x2="170.0" y2="667.9" stroke="#2b6cb0" stroke-width="8" stroke-linecap="round"/><line x1="170.0" y1="667.9" x2="170.0" y2="680.0" stroke="#c53030" stroke-width="8" stroke-linecap="round"/><line x1="170.0" y1="658.0" x2="170.0" y2="636.0" stroke="#2b6cb0" stroke-width="8" stroke-linecap="round"/><circle cx="165.0" cy="658.0" r="5.0" fill="#1a202c"/><line x1="160.0" y1="714.0" x2="160.0" y2="727.0" stroke="#2b6cb0" stroke-width="8" stroke-linecap="round"/><line x1="160.0" y1="714.0" x2="160.0" y2="701.0" stroke="#2b6cb0" stroke-width="8" stroke-linecap="round"/><line x1="170.0" y1="714.0" x2="170.0" y2="727.0" stroke="#2b6cb0" stroke-width="8" stroke-linecap="round"/><line x1="170.0" y1="714.0" x2="170.0" y2="701.0" stroke="#2b6cb0" stroke-width="8" stroke-linecap="round"/><circle cx="165.0" cy="714.0" r="5.0" fill="#1a202c"/><ellipse cx="165" cy="850" rx="126" ry="72" fill="#f4f9f6" stroke="#2f855a" stroke-width="2.5"/><line x1="61.0" y1="850.0" x2="159.0" y2="828.0" stroke="#a0aec0" stroke-width="1.3" /><line x1="269.0" y1="850.0" x2="171.0" y2="828.0" stroke="#a0aec0" stroke-width="1.3" /><line x1="61.0" y1="850.0" x2="159.0" y2="884.0" stroke="#a0aec0" stroke-width="1.3" /><line x1="269.0" y1="850.0" x2="171.0" y2="884.0" stroke="#a0aec0" stroke-width="1.3" /><line x1="61.0" y1="850.0" x2="73.0" y2="850.0" stroke="#a0aec0" stroke-width="1.2" /><line x1="61.0" y1="850.0" x2="69.5" y2="858.5" stroke="#a0aec0" stroke-width="1.2" /><line x1="61.0" y1="850.0" x2="61.0" y2="862.0" stroke="#a0aec0" stroke-width="1.2" /><line x1="61.0" y1="850.0" x2="52.5" y2="858.5" stroke="#a0aec0" stroke-width="1.2" /><line x1="61.0" y1="850.0" x2="49.0" y2="850.0" stroke="#a0aec0" stroke-width="1.2" /><line x1="61.0" y1="850.0" x2="52.5" y2="841.5" stroke="#a0aec0" stroke-width="1.2" /><line x1="61.0" y1="850.0" x2="61.0" y2="838.0" stroke="#a0aec0" stroke-width="1.2" /><line x1="61.0" y1="850.0" x2="69.5" y2="841.5" stroke="#a0aec0" stroke-width="1.2" /><rect x="54" y="847.5" width="14" height="5" rx="1.5" fill="#2f855a"/><rect x="58.5" y="843" width="5" height="14" rx="1.5" fill="#2f855a"/><line x1="269.0" y1="850.0" x2="281.0" y2="850.0" stroke="#a0aec0" stroke-width="1.2" /><line x1="269.0" y1="850.0" x2="277.5" y2="858.5" stroke="#a0aec0" stroke-width="1.2" /><line x1="269.0" y1="850.0" x2="269.0" y2="862.0" stroke="#a0aec0" stroke-width="1.2" /><line x1="269.0" y1="850.0" x2="260.5" y2="858.5" stroke="#a0aec0" stroke-width="1.2" /><line x1="269.0" y1="850.0" x2="257.0" y2="850.0" stroke="#a0aec0" stroke-width="1.2" /><line x1="269.0" y1="850.0" x2="260.5" y2="841.5" stroke="#a0aec0" stroke-width="1.2" /><line x1="269.0" y1="850.0" x2="269.0" y2="838.0" stroke="#a0aec0" stroke-width="1.2" /><line x1="269.0" y1="850.0" x2="277.5" y2="841.5" stroke="#a0aec0" stroke-width="1.2" /><rect x="262" y="847.5" width="14" height="5" rx="1.5" fill="#2f855a"/><rect x="266.5" y="843" width="5" height="14" rx="1.5" fill="#2f855a"/><line x1="160.0" y1="828.0" x2="160.0" y2="837.9" stroke="#c53030" stroke-width="8" stroke-linecap="round"/><line x1="160.0" y1="837.9" x2="160.0" y2="850.0" stroke="#2b6cb0" stroke-width="8" stroke-linecap="round"/><line x1="160.0" y1="828.0" x2="160.0" y2="806.0" stroke="#c53030" stroke-width="8" stroke-linecap="round"/><line x1="170.0" y1="828.0" x2="170.0" y2="850.0" stroke="#c53030" stroke-width="8" stroke-linecap="round"/><line x1="170.0" y1="828.0" x2="170.0" y2="806.0" stroke="#c53030" stroke-width="8" stroke-linecap="round"/><circle cx="165.0" cy="828.0" r="5.0" fill="#1a202c"/><line x1="160.0" y1="884.0" x2="160.0" y2="897.0" stroke="#c53030" stroke-width="8" stroke-linecap="round"/><line x1="160.0" y1="884.0" x2="160.0" y2="871.0" stroke="#c53030" stroke-width="8" stroke-linecap="round"/><line x1="170.0" y1="884.0" x2="170.0" y2="897.0" stroke="#c53030" stroke-width="8" stroke-linecap="round"/><line x1="170.0" y1="884.0" x2="170.0" y2="871.0" stroke="#c53030" stroke-width="8" stroke-linecap="round"/><circle cx="165.0" cy="884.0" r="5.0" fill="#1a202c"/><ellipse cx="475" cy="680" rx="132" ry="72" fill="#f4f9f6" stroke="#2f855a" stroke-width="2.5"/><line x1="363.0" y1="680.0" x2="375.0" y2="680.0" stroke="#a0aec0" stroke-width="1.2" /><line x1="363.0" y1="680.0" x2="371.5" y2="688.5" stroke="#a0aec0" stroke-width="1.2" /><line x1="363.0" y1="680.0" x2="363.0" y2="692.0" stroke="#a0aec0" stroke-width="1.2" /><line x1="363.0" y1="680.0" x2="354.5" y2="688.5" stroke="#a0aec0" stroke-width="1.2" /><line x1="363.0" y1="680.0" x2="351.0" y2="680.0" stroke="#a0aec0" stroke-width="1.2" /><line x1="363.0" y1="680.0" x2="354.5" y2="671.5" stroke="#a0aec0" stroke-width="1.2" /><line x1="363.0" y1="680.0" x2="363.0" y2="668.0" stroke="#a0aec0" stroke-width="1.2" /><line x1="363.0" y1="680.0" x2="371.5" y2="671.5" stroke="#a0aec0" stroke-width="1.2" /><rect x="356" y="677.5" width="14" height="5" rx="1.5" fill="#2f855a"/><rect x="360.5" y="673" width="5" height="14" rx="1.5" fill="#2f855a"/><line x1="587.0" y1="680.0" x2="599.0" y2="680.0" stroke="#a0aec0" stroke-width="1.2" /><line x1="587.0" y1="680.0" x2="595.5" y2="688.5" stroke="#a0aec0" stroke-width="1.2" /><line x1="587.0" y1="680.0" x2="587.0" y2="692.0" stroke="#a0aec0" stroke-width="1.2" /><line x1="587.0" y1="680.0" x2="578.5" y2="688.5" stroke="#a0aec0" stroke-width="1.2" /><line x1="587.0" y1="680.0" x2="575.0" y2="680.0" stroke="#a0aec0" stroke-width="1.2" /><line x1="587.0" y1="680.0" x2="578.5" y2="671.5" stroke="#a0aec0" stroke-width="1.2" /><line x1="587.0" y1="680.0" x2="587.0" y2="668.0" stroke="#a0aec0" stroke-width="1.2" /><line x1="587.0" y1="680.0" x2="595.5" y2="671.5" stroke="#a0aec0" stroke-width="1.2" /><rect x="580" y="677.5" width="14" height="5" rx="1.5" fill="#2f855a"/><rect x="584.5" y="673" width="5" height="14" rx="1.5" fill="#2f855a"/><line x1="363.0" y1="680.0" x2="423.0" y2="656.0" stroke="#a0aec0" stroke-width="1.3" /><line x1="423.0" y1="656.0" x2="442.4" y2="645.7" stroke="#2b6cb0" stroke-width="8" stroke-linecap="round"/><line x1="423.0" y1="656.0" x2="442.4" y2="666.3" stroke="#2b6cb0" stroke-width="8" stroke-linecap="round"/><circle cx="423" cy="656" r="4" fill="#1a202c"/><line x1="587.0" y1="680.0" x2="527.0" y2="656.0" stroke="#a0aec0" stroke-width="1.3" /><line x1="527.0" y1="656.0" x2="507.6" y2="645.7" stroke="#2b6cb0" stroke-width="8" stroke-linecap="round"/><line x1="527.0" y1="656.0" x2="518.3" y2="660.6" stroke="#2b6cb0" stroke-width="8" stroke-linecap="round"/><line x1="518.3" y1="660.6" x2="507.6" y2="666.3" stroke="#c53030" stroke-width="8" stroke-linecap="round"/><circle cx="527" cy="656" r="4" fill="#1a202c"/><line x1="363.0" y1="680.0" x2="423.0" y2="714.0" stroke="#a0aec0" stroke-width="1.3" /><line x1="423.0" y1="714.0" x2="434.5" y2="707.9" stroke="#2b6cb0" stroke-width="8" stroke-linecap="round"/><line x1="423.0" y1="714.0" x2="434.5" y2="720.1" stroke="#2b6cb0" stroke-width="8" stroke-linecap="round"/><circle cx="423" cy="714" r="4" fill="#1a202c"/><line x1="587.0" y1="680.0" x2="527.0" y2="714.0" stroke="#a0aec0" stroke-width="1.3" /><line x1="527.0" y1="714.0" x2="515.5" y2="707.9" stroke="#2b6cb0" stroke-width="8" stroke-linecap="round"/><line x1="527.0" y1="714.0" x2="515.5" y2="720.1" stroke="#2b6cb0" stroke-width="8" stroke-linecap="round"/><circle cx="527" cy="714" r="4" fill="#1a202c"/><ellipse cx="475" cy="850" rx="132" ry="72" fill="#f4f9f6" stroke="#2f855a" stroke-width="2.5"/><line x1="363.0" y1="850.0" x2="375.0" y2="850.0" stroke="#a0aec0" stroke-width="1.2" /><line x1="363.0" y1="850.0" x2="371.5" y2="858.5" stroke="#a0aec0" stroke-width="1.2" /><line x1="363.0" y1="850.0" x2="363.0" y2="862.0" stroke="#a0aec0" stroke-width="1.2" /><line x1="363.0" y1="850.0" x2="354.5" y2="858.5" stroke="#a0aec0" stroke-width="1.2" /><line x1="363.0" y1="850.0" x2="351.0" y2="850.0" stroke="#a0aec0" stroke-width="1.2" /><line x1="363.0" y1="850.0" x2="354.5" y2="841.5" stroke="#a0aec0" stroke-width="1.2" /><line x1="363.0" y1="850.0" x2="363.0" y2="838.0" stroke="#a0aec0" stroke-width="1.2" /><line x1="363.0" y1="850.0" x2="371.5" y2="841.5" stroke="#a0aec0" stroke-width="1.2" /><rect x="356" y="847.5" width="14" height="5" rx="1.5" fill="#2f855a"/><rect x="360.5" y="843" width="5" height="14" rx="1.5" fill="#2f855a"/><line x1="587.0" y1="850.0" x2="599.0" y2="850.0" stroke="#a0aec0" stroke-width="1.2" /><line x1="587.0" y1="850.0" x2="595.5" y2="858.5" stroke="#a0aec0" stroke-width="1.2" /><line x1="587.0" y1="850.0" x2="587.0" y2="862.0" stroke="#a0aec0" stroke-width="1.2" /><line x1="587.0" y1="850.0" x2="578.5" y2="858.5" stroke="#a0aec0" stroke-width="1.2" /><line x1="587.0" y1="850.0" x2="575.0" y2="850.0" stroke="#a0aec0" stroke-width="1.2" /><line x1="587.0" y1="850.0" x2="578.5" y2="841.5" stroke="#a0aec0" stroke-width="1.2" /><line x1="587.0" y1="850.0" x2="587.0" y2="838.0" stroke="#a0aec0" stroke-width="1.2" /><line x1="587.0" y1="850.0" x2="595.5" y2="841.5" stroke="#a0aec0" stroke-width="1.2" /><rect x="580" y="847.5" width="14" height="5" rx="1.5" fill="#2f855a"/><rect x="584.5" y="843" width="5" height="14" rx="1.5" fill="#2f855a"/><line x1="363.0" y1="850.0" x2="423.0" y2="826.0" stroke="#a0aec0" stroke-width="1.3" /><line x1="423.0" y1="826.0" x2="442.4" y2="815.7" stroke="#c53030" stroke-width="8" stroke-linecap="round"/><line x1="423.0" y1="826.0" x2="442.4" y2="836.3" stroke="#c53030" stroke-width="8" stroke-linecap="round"/><circle cx="423" cy="826" r="4" fill="#1a202c"/><line x1="587.0" y1="850.0" x2="527.0" y2="826.0" stroke="#a0aec0" stroke-width="1.3" /><line x1="527.0" y1="826.0" x2="507.6" y2="815.7" stroke="#c53030" stroke-width="8" stroke-linecap="round"/><line x1="527.0" y1="826.0" x2="518.3" y2="830.6" stroke="#c53030" stroke-width="8" stroke-linecap="round"/><line x1="518.3" y1="830.6" x2="507.6" y2="836.3" stroke="#2b6cb0" stroke-width="8" stroke-linecap="round"/><circle cx="527" cy="826" r="4" fill="#1a202c"/><line x1="363.0" y1="850.0" x2="423.0" y2="884.0" stroke="#a0aec0" stroke-width="1.3" /><line x1="423.0" y1="884.0" x2="434.5" y2="877.9" stroke="#c53030" stroke-width="8" stroke-linecap="round"/><line x1="423.0" y1="884.0" x2="434.5" y2="890.1" stroke="#c53030" stroke-width="8" stroke-linecap="round"/><circle cx="423" cy="884" r="4" fill="#1a202c"/><line x1="587.0" y1="850.0" x2="527.0" y2="884.0" stroke="#a0aec0" stroke-width="1.3" /><line x1="527.0" y1="884.0" x2="515.5" y2="877.9" stroke="#c53030" stroke-width="8" stroke-linecap="round"/><line x1="527.0" y1="884.0" x2="515.5" y2="890.1" stroke="#c53030" stroke-width="8" stroke-linecap="round"/><circle cx="527" cy="884" r="4" fill="#1a202c"/><circle cx="700" cy="760" r="58" fill="#f4f9f6" stroke="#2f855a" stroke-width="2.5"/><ellipse cx="700" cy="760" rx="38" ry="40" fill="#ffffff" stroke="#4a5568" stroke-width="1.8"/><line x1="690.0" y1="760.0" x2="690.0" y2="782.0" stroke="#2b6cb0" stroke-width="8" stroke-linecap="round"/><line x1="690.0" y1="760.0" x2="690.0" y2="738.0" stroke="#2b6cb0" stroke-width="8" stroke-linecap="round"/><line x1="714.0" y1="764.0" x2="714.0" y2="777.0" stroke="#2b6cb0" stroke-width="8" stroke-linecap="round"/><line x1="714.0" y1="764.0" x2="714.0" y2="751.0" stroke="#2b6cb0" stroke-width="8" stroke-linecap="round"/><text x="700.0" y="846.0" font-size="15" text-anchor="middle" fill="#2f855a" font-weight="700" >n = 2</text><circle cx="840" cy="760" r="58" fill="#f4f9f6" stroke="#2f855a" stroke-width="2.5"/><ellipse cx="840" cy="760" rx="38" ry="40" fill="#ffffff" stroke="#4a5568" stroke-width="1.8"/><line x1="830.0" y1="760.0" x2="830.0" y2="769.9" stroke="#2b6cb0" stroke-width="8" stroke-linecap="round"/><line x1="830.0" y1="769.9" x2="830.0" y2="782.0" stroke="#c53030" stroke-width="8" stroke-linecap="round"/><line x1="830.0" y1="760.0" x2="830.0" y2="738.0" stroke="#2b6cb0" stroke-width="8" stroke-linecap="round"/><line x1="854.0" y1="764.0" x2="854.0" y2="777.0" stroke="#2b6cb0" stroke-width="8" stroke-linecap="round"/><line x1="854.0" y1="764.0" x2="854.0" y2="751.0" stroke="#2b6cb0" stroke-width="8" stroke-linecap="round"/><text x="840.0" y="846.0" font-size="15" text-anchor="middle" fill="#2f855a" font-weight="700" >n = 2</text><circle cx="980" cy="760" r="58" fill="#f4f9f6" stroke="#2f855a" stroke-width="2.5"/><ellipse cx="980" cy="760" rx="38" ry="40" fill="#ffffff" stroke="#4a5568" stroke-width="1.8"/><line x1="970.0" y1="760.0" x2="970.0" y2="769.9" stroke="#c53030" stroke-width="8" stroke-linecap="round"/><line x1="970.0" y1="769.9" x2="970.0" y2="782.0" stroke="#2b6cb0" stroke-width="8" stroke-linecap="round"/><line x1="970.0" y1="760.0" x2="970.0" y2="738.0" stroke="#c53030" stroke-width="8" stroke-linecap="round"/><line x1="994.0" y1="764.0" x2="994.0" y2="777.0" stroke="#c53030" stroke-width="8" stroke-linecap="round"/><line x1="994.0" y1="764.0" x2="994.0" y2="751.0" stroke="#c53030" stroke-width="8" stroke-linecap="round"/><text x="980.0" y="846.0" font-size="15" text-anchor="middle" fill="#2f855a" font-weight="700" >n = 2</text><circle cx="1120" cy="760" r="58" fill="#f4f9f6" stroke="#2f855a" stroke-width="2.5"/><ellipse cx="1120" cy="760" rx="38" ry="40" fill="#ffffff" stroke="#4a5568" stroke-width="1.8"/><line x1="1110.0" y1="760.0" x2="1110.0" y2="782.0" stroke="#c53030" stroke-width="8" stroke-linecap="round"/><line x1="1110.0" y1="760.0" x2="1110.0" y2="738.0" stroke="#c53030" stroke-width="8" stroke-linecap="round"/><line x1="1134.0" y1="764.0" x2="1134.0" y2="777.0" stroke="#c53030" stroke-width="8" stroke-linecap="round"/><line x1="1134.0" y1="764.0" x2="1134.0" y2="751.0" stroke="#c53030" stroke-width="8" stroke-linecap="round"/><text x="1120.0" y="846.0" font-size="15" text-anchor="middle" fill="#2f855a" font-weight="700" >n = 2</text><text x="940.0" y="882.0" font-size="14" text-anchor="middle" fill="#4a5568" font-weight="normal" >Dos células llevan cromátidas recombinadas (mezcla de colores)</text><text x="940.0" y="900.0" font-size="14" text-anchor="middle" fill="#4a5568" font-weight="normal" >producto del entrecruzamiento; las cuatro son genéticamente distintas.</text><line x1="290.0" y1="765.0" x2="330.0" y2="765.0" stroke="#2f855a" stroke-width="2.5" marker-end="url(#arg)"/><line x1="598.0" y1="765.0" x2="638.0" y2="765.0" stroke="#2f855a" stroke-width="2.5" marker-end="url(#arg)"/><line x1="40.0" y1="945.0" x2="54.0" y2="945.0" stroke="#2b6cb0" stroke-width="8" stroke-linecap="round"/><line x1="40.0" y1="945.0" x2="26.0" y2="945.0" stroke="#2b6cb0" stroke-width="8" stroke-linecap="round"/><text x="62.0" y="950.0" font-size="14" text-anchor="start" fill="#1a202c" font-weight="normal" >materno</text><line x1="160.0" y1="945.0" x2="174.0" y2="945.0" stroke="#c53030" stroke-width="8" stroke-linecap="round"/><line x1="160.0" y1="945.0" x2="146.0" y2="945.0" stroke="#c53030" stroke-width="8" stroke-linecap="round"/><text x="182.0" y="950.0" font-size="14" text-anchor="start" fill="#1a202c" font-weight="normal" >paterno</text><line x1="270.0" y1="945.0" x2="284.0" y2="945.0" stroke="#2b6cb0" stroke-width="8" stroke-linecap="round"/><line x1="284.0" y1="945.0" x2="298.0" y2="945.0" stroke="#c53030" stroke-width="8" stroke-linecap="round"/><text x="316.0" y="950.0" font-size="14" text-anchor="start" fill="#1a202c" font-weight="normal" >tramo intercambiado por entrecruzamiento</text>
</svg>
