<svg xmlns="http://www.w3.org/2000/svg" viewBox="0 0 900 370" width="900" height="370" role="img" aria-label="Roce versus fuerza aplicada: el roce estático crece igual que la fuerza hasta 250 newtons y luego cae a un roce cinético constante de 150 newtons" font-family="system-ui, -apple-system, 'Segoe UI', Roboto, Helvetica, Arial, sans-serif">
<title>Roce versus fuerza aplicada: el roce estático crece igual que la fuerza hasta 250 newtons y luego cae a un roce cinético constante de 150 newtons</title>
<rect width="900" height="370" fill="#ffffff"/>
<defs><marker id="mg" viewBox="0 0 10 10" refX="8" refY="5" markerWidth="7" markerHeight="7" orient="auto-start-reverse"><path d="M0,0 L10,5 L0,10 z" fill="#4a5568"/></marker><marker id="mr" viewBox="0 0 10 10" refX="8" refY="5" markerWidth="7" markerHeight="7" orient="auto-start-reverse"><path d="M0,0 L10,5 L0,10 z" fill="#c92a2a"/></marker><marker id="ma" viewBox="0 0 10 10" refX="8" refY="5" markerWidth="7" markerHeight="7" orient="auto-start-reverse"><path d="M0,0 L10,5 L0,10 z" fill="#1c7ed6"/></marker><marker id="mn" viewBox="0 0 10 10" refX="8" refY="5" markerWidth="7" markerHeight="7" orient="auto-start-reverse"><path d="M0,0 L10,5 L0,10 z" fill="#e67700"/></marker><marker id="mv" viewBox="0 0 10 10" refX="8" refY="5" markerWidth="7" markerHeight="7" orient="auto-start-reverse"><path d="M0,0 L10,5 L0,10 z" fill="#2f9e44"/></marker></defs>
<text x="450.0" y="28.0" font-size="18" text-anchor="middle" fill="#1a202c" font-weight="700">Roce estático y roce cinético</text>
<line x1="100.0" y1="320.0" x2="800.0" y2="320.0" stroke="#4a5568" stroke-width="1.5" marker-end="url(#mg)"/>
<line x1="100.0" y1="325.0" x2="100.0" y2="60.0" stroke="#4a5568" stroke-width="1.5" marker-end="url(#mg)"/>
<text x="800.0" y="354.0" font-size="12" text-anchor="end" fill="#4a5568" font-weight="normal">fuerza aplicada (N)</text>
<text x="106.0" y="56.0" font-size="12" text-anchor="start" fill="#4a5568" font-weight="normal">roce (N)</text>
<line x1="210.0" y1="316.0" x2="210.0" y2="324.0" stroke="#4a5568" stroke-width="1" />
<text x="210.0" y="338.0" font-size="11" text-anchor="middle" fill="#4a5568" font-weight="normal">50</text>
<line x1="320.0" y1="316.0" x2="320.0" y2="324.0" stroke="#4a5568" stroke-width="1" />
<text x="320.0" y="338.0" font-size="11" text-anchor="middle" fill="#4a5568" font-weight="normal">100</text>
<line x1="430.0" y1="316.0" x2="430.0" y2="324.0" stroke="#4a5568" stroke-width="1" />
<text x="430.0" y="338.0" font-size="11" text-anchor="middle" fill="#4a5568" font-weight="normal">150</text>
<line x1="540.0" y1="316.0" x2="540.0" y2="324.0" stroke="#4a5568" stroke-width="1" />
<text x="540.0" y="338.0" font-size="11" text-anchor="middle" fill="#4a5568" font-weight="normal">200</text>
<line x1="650.0" y1="316.0" x2="650.0" y2="324.0" stroke="#4a5568" stroke-width="1" />
<text x="650.0" y="338.0" font-size="11" text-anchor="middle" fill="#4a5568" font-weight="normal">250</text>
<line x1="760.0" y1="316.0" x2="760.0" y2="324.0" stroke="#4a5568" stroke-width="1" />
<text x="760.0" y="338.0" font-size="11" text-anchor="middle" fill="#4a5568" font-weight="normal">300</text>
<line x1="96.0" y1="275.0" x2="104.0" y2="275.0" stroke="#4a5568" stroke-width="1" />
<line x1="104.0" y1="275.0" x2="790.0" y2="275.0" stroke="#edf2f7" stroke-width="1" />
<text x="92.0" y="279.0" font-size="11" text-anchor="end" fill="#4a5568" font-weight="normal">50</text>
<line x1="96.0" y1="230.0" x2="104.0" y2="230.0" stroke="#4a5568" stroke-width="1" />
<line x1="104.0" y1="230.0" x2="790.0" y2="230.0" stroke="#edf2f7" stroke-width="1" />
<text x="92.0" y="234.0" font-size="11" text-anchor="end" fill="#4a5568" font-weight="normal">100</text>
<line x1="96.0" y1="185.0" x2="104.0" y2="185.0" stroke="#4a5568" stroke-width="1" />
<line x1="104.0" y1="185.0" x2="790.0" y2="185.0" stroke="#edf2f7" stroke-width="1" />
<text x="92.0" y="189.0" font-size="11" text-anchor="end" fill="#4a5568" font-weight="normal">150</text>
<line x1="96.0" y1="140.0" x2="104.0" y2="140.0" stroke="#4a5568" stroke-width="1" />
<line x1="104.0" y1="140.0" x2="790.0" y2="140.0" stroke="#edf2f7" stroke-width="1" />
<text x="92.0" y="144.0" font-size="11" text-anchor="end" fill="#4a5568" font-weight="normal">200</text>
<line x1="96.0" y1="95.0" x2="104.0" y2="95.0" stroke="#4a5568" stroke-width="1" />
<line x1="104.0" y1="95.0" x2="790.0" y2="95.0" stroke="#edf2f7" stroke-width="1" />
<text x="92.0" y="99.0" font-size="11" text-anchor="end" fill="#4a5568" font-weight="normal">250</text>
<polyline points="100.0,320.0 650.0,95.0" fill="none" stroke="#e67700" stroke-width="2.8" />
<polyline points="650.0,95.0 650.0,185.0" fill="none" stroke="#4a5568" stroke-width="1.5" stroke-dasharray="5 4"/>
<polyline points="650.0,185.0 782.0,185.0" fill="none" stroke="#c92a2a" stroke-width="2.8" />
<text x="144.0" y="140.0" font-size="12" text-anchor="start" fill="#e67700" font-weight="700">roce estático = fuerza aplicada</text>
<text x="650.0" y="83.0" font-size="12" text-anchor="middle" fill="#e67700" font-weight="700">máximo: μe · N = 250 N</text>
<text x="663.2" y="173.0" font-size="12" text-anchor="start" fill="#c92a2a" font-weight="700">cinético: 150 N</text>
<text x="375.0" y="302.0" font-size="12" text-anchor="middle" fill="#4a5568" font-weight="normal">la caja no se mueve</text>
<text x="727.0" y="302.0" font-size="12" text-anchor="middle" fill="#4a5568" font-weight="normal">la caja desliza</text>
<line x1="650.0" y1="320.0" x2="650.0" y2="77.0" stroke="#4a5568" stroke-width="1" stroke-dasharray="5 4"/>
</svg>
